<svg width="37" height="37" viewBox="0 0 37 37" fill="none" xmlns="http://www.w3.org/2000/svg">
<g clip-path="url(#clip0_420_2)">
<path d="M24.4143 6.07839L19.3008 18.271C17.5982 22.3295 15.8916 26.3995 14.1901 30.4579C13.8756 31.2078 14.2352 31.9188 14.8284 31.7286C21.26 29.6451 27.6893 27.5679 34.1146 25.4878C34.7014 25.2947 35.1055 24.3315 34.8303 23.7812C31.8102 17.7374 28.7872 11.6943 25.7648 5.65058C25.4873 5.0846 24.7282 5.32856 24.4125 6.07781" fill="#5FA6C9"/>
<path d="M24.5414 5.78703C23.0995 9.22572 21.6565 12.6679 20.2124 16.1083C18.7717 19.5453 17.3287 22.9868 15.8857 26.4249C15.6203 27.0597 15.9267 27.6627 16.4291 27.5008C21.8721 25.7375 27.3158 23.9812 32.7554 22.2173C33.2502 22.0537 33.5925 21.2386 33.3606 20.7743C30.8065 15.6574 28.2437 10.5427 25.6855 5.42224C25.4502 4.94817 24.8061 5.15283 24.5396 5.78703" fill="#66B1DE"/>
<path d="M36.9578 19.3828C36.2855 19.1018 35.6149 18.818 34.9442 18.537L31.4246 17.0611C31.3992 17.0518 31.3732 17.0611 31.3495 17.0801L31.3471 17.0824L31.3402 17.0836C31.3099 17.1111 31.2865 17.1454 31.272 17.1836L29.5792 21.2207C28.6901 23.3378 27.805 25.4502 26.9158 27.5679C26.8805 27.6552 26.8898 27.7425 26.9366 27.7621C27.6084 28.0431 28.2796 28.3241 28.9502 28.6068C30.1238 29.0993 31.2974 29.5896 32.4699 30.0827C32.5161 30.103 32.5855 30.0463 32.6219 29.9613C33.1867 28.6149 33.7504 27.2707 34.3147 25.9231C35.2038 23.806 36.0907 21.6907 36.9781 19.5747C37.0139 19.4874 37.0053 19.4013 36.9578 19.3828Z" fill="#2B7F99"/>
<path d="M1.2979 20.7478C-1.84652 14.3884 1.19904 7.11963 7.94056 4.90714C8.67709 4.6678 9.4564 5.33264 9.13149 6.10849C8.33484 8.00936 7.59079 7.52431 5.93331 8.91817C2.84901 11.5122 1.9824 15.2273 3.45373 18.9567C3.46067 18.977 3.45835 18.9949 3.46298 19.0157C3.49998 19.1117 3.52079 19.21 3.51848 19.3169C3.51732 19.3834 3.49767 19.4401 3.48206 19.499C3.47049 19.5528 3.47281 19.6002 3.4491 19.658C3.2959 20.0199 3.1427 20.3882 2.98949 20.7553C2.66459 21.5294 1.64304 21.4438 1.2979 20.7478Z" fill="#5FA6C9"/>
<path d="M6.86528 21.3004C4.31748 16.1569 6.78202 10.2756 12.2355 8.48919C12.8315 8.29148 13.4617 8.82971 13.1992 9.45755C12.554 10.9959 11.9528 10.6028 10.6127 11.729C8.11518 13.8282 7.41565 16.8321 8.60428 19.8517C8.61121 19.8679 8.60774 19.8829 8.61353 19.8996C8.64185 19.9771 8.66035 20.0563 8.65688 20.1454C8.65804 20.1985 8.64012 20.2413 8.62856 20.2893C8.61815 20.3332 8.62278 20.3737 8.60254 20.4188C8.47998 20.7142 8.3551 21.0091 8.23023 21.3074C7.9666 21.9341 7.13988 21.8618 6.86528 21.2999M11.8898 21.5814C9.96229 17.6866 11.8273 13.2368 15.954 11.8851C16.4038 11.7354 16.8813 12.1429 16.683 12.6187C16.1951 13.7808 15.7383 13.4854 14.7249 14.3387C12.8344 15.925 12.3066 18.2011 13.205 20.4836C13.2119 20.4963 13.2096 20.5078 13.2119 20.52C13.2348 20.579 13.2464 20.6417 13.246 20.705C13.246 20.7454 13.2304 20.7801 13.2235 20.816C13.2166 20.8478 13.2189 20.8767 13.2056 20.9137C13.1125 21.1351 13.0171 21.3617 12.9252 21.5855C12.7257 22.0595 12.0979 22.0052 11.8874 21.5814" fill="#5FA6C9"/>
<path d="M25.5936 4.82735C24.2073 4.24923 20.5356 9.85646 17.3901 17.3588C14.2427 24.8588 12.8159 31.4095 14.2011 31.9929C15.5851 32.571 19.2591 26.9614 22.4036 19.4614C25.5497 11.9603 26.9771 5.40837 25.5936 4.82735Z" fill="#2B7F99"/>
<path d="M24.749 6.83226C23.7765 6.42584 20.8004 11.3156 18.0982 17.7582C15.3995 24.1986 13.9953 29.7497 14.9659 30.1561C15.9378 30.5643 18.9139 25.6722 21.6178 19.2319C24.3148 12.7893 25.719 7.241 24.749 6.83226Z" fill="#5FA6C9"/>
<path d="M20.1788 15.4331C21.3351 15.9181 21.7623 17.5288 21.131 19.0336C20.4997 20.5397 19.0474 21.3693 17.8929 20.8825C16.7378 20.398 16.3146 18.7845 16.9483 17.2796C17.5767 15.7742 19.0243 14.9498 20.1788 15.4331Z" fill="#72C1E8"/>
</g>
<defs>
<clipPath id="clip0_420_2">
<rect width="37" height="37" fill="white"/>
</clipPath>
</defs>
</svg>
